<?xml version="1.0" encoding="UTF-8"?>
<svg width="1000px" height="1000px" viewBox="0 0 1000 1000" version="1.1" xmlns="http://www.w3.org/2000/svg" xmlns:xlink="http://www.w3.org/1999/xlink">
    <!-- Generator: Sketch 58 (84663) - https://sketch.com -->
    <title>boy</title>
    <desc>Created with Sketch.</desc>
    <g id="Page-1" stroke="none" stroke-width="1" fill="none" fill-rule="evenodd">
        <g id="boy" transform="translate(100.000000, 81.000000)">
            <g id="illustration">
                <path d="M421.3,761 L421.3,807.8 C421.3,856.6 476.7,858.1 476.7,812.3 L476.7,760.5 L421.3,761 Z" id="Path" fill="#60504B" fill-rule="nonzero"></path>
                <rect id="Rectangle" fill="#FFFFFF" fill-rule="nonzero" x="433.7" y="782.3" width="30.6" height="4.4"></rect>
                <rect id="Rectangle" fill="#FFFFFF" fill-rule="nonzero" x="433.7" y="790.7" width="30.6" height="4.4"></rect>
                <rect id="Rectangle" fill="#FFFFFF" fill-rule="nonzero" x="433.7" y="799.2" width="30.6" height="4.4"></rect>
                <path d="M318,761 L318,807.8 C318,856.6 373.4,858.1 373.4,812.3 L373.4,760.5 L318,761 Z" id="Path" fill="#60504B" fill-rule="nonzero"></path>
                <path d="M292.4,386.8 C292.4,453.2 292.4,535.7 292.4,615 C292.4,670.8 292.4,725 292.4,770.8 C349,770.8 351.2,770.8 392.1,770.8 C392.1,724 392.1,669.4 392.1,616.3 C392.1,540.4 392.1,467.5 392.1,424.7 C398,424.7 406.6,424.7 412,424.7 C412,466 412,540.5 412,616.3 C412,671.2 412,726.7 412,770.8 C457,770.8 446.6,770.8 503.7,770.8 C503.7,727.8 503.7,673.3 503.7,616.3 C503.7,536.8 503.7,452.3 503.7,386.8 L292.4,386.8 Z" id="Path" fill="#3D527F" fill-rule="nonzero"></path>
                <rect id="Rectangle" fill="#FFFFFF" fill-rule="nonzero" x="330.4" y="782.3" width="30.6" height="4.4"></rect>
                <rect id="Rectangle" fill="#FFFFFF" fill-rule="nonzero" x="330.4" y="790.7" width="30.6" height="4.4"></rect>
                <rect id="Rectangle" fill="#FFFFFF" fill-rule="nonzero" x="330.4" y="799.2" width="30.6" height="4.4"></rect>
                <path d="M274.9,402 C274.9,354.7 280.9,285.1 306,234.6 C314.4,217.8 324.9,203.1 338,192.1 C353.7,178.9 373.3,170.9 397.4,170.9 C423.5,170.9 444.3,180.1 460.8,195.2 C471.1,204.6 479.8,216.4 487,229.6 C514.5,280 521.5,352.1 521.5,402 L274.9,402 L274.9,402 Z" id="Path" fill="#ABD1D5" fill-rule="nonzero"></path>
                <path d="M514.8,402.6 L282,402.6" id="Path"></path>
                <ellipse id="Oval" fill="#FFFFFF" fill-rule="nonzero" cx="398.9" cy="197.3" rx="22" ry="16.3"></ellipse>
                <path d="M741.8,219.2 L758.8,212.4 C758.8,212.4 764.9,217.9 771.8,223.6 C778.7,229.3 767.1,242 756.5,234.2 C745.8,226.4 741.8,219.2 741.8,219.2 Z" id="Path" fill="#F3AF9D" fill-rule="nonzero"></path>
                <path d="M183.8,160.1 L186.8,216.9 C245.7,217.2 280.3,214.6 306.1,234.6 L354.8,184.4 C300.5,157.7 239.8,156.7 183.8,160.1 Z" id="Path" fill="#99AFB1" fill-rule="nonzero"></path>
                <path d="M443.7,183.4 L487,236.6 C514,220.4 554.7,220.3 613.6,219.9 L613.6,163.1 C557.6,159.7 514.4,152.7 443.7,183.4 Z" id="Path" fill="#99AFB1" fill-rule="nonzero"></path>
                <path d="M189,166.7 C141.3,169.4 65.9,175.6 28.8,180.9 C-8.3,186.2 -11.3,221 34.1,220.4 C79.5,219.8 129.3,216.9 193.8,208.3 L189,166.7 Z" id="Path" fill="#F3AF9D" fill-rule="nonzero"></path>
                <path d="M53.6,219.2 L36.6,212.4 C36.6,212.4 30.5,217.9 23.6,223.6 C16.7,229.3 28.3,242 38.9,234.2 C49.6,226.4 53.6,219.2 53.6,219.2 Z" id="Path" fill="#F3AF9D" fill-rule="nonzero"></path>
                <path d="M607.7,211.3 C672.2,219.9 721,222.8 766.4,223.4 C811.8,224 808.8,189.2 771.7,183.9 C734.6,178.6 657.2,172.4 609.5,169.7 L607.7,211.3 Z" id="Path" fill="#F3AF9D" fill-rule="nonzero"></path>
                <path d="M387.5,104.9 L408.4,104.9 C408.4,104.9 412.7,172.2 414.1,195.7 C412,205.4 405,207 398.6,206.8 C390.4,206.6 382.7,202.1 381.5,194.3 L387.5,104.9 Z" id="Path" fill="#F3AF9D" fill-rule="nonzero"></path>
                <path d="M387.5,104.9 L408.4,104.9 C410.3,123.9 386.8,194.3 381.6,194.3 L387.5,104.9 Z" id="Path" fill="#DD9B8E" fill-rule="nonzero"></path>
                <path d="M397,6 C370,6 308,14 341,70 C365.8,112.1 429,114 451,73 C473,32 447,6 397,6 Z" id="Path" fill="#72605A" fill-rule="nonzero"></path>
                <circle id="Oval" fill="#DF7977" fill-rule="nonzero" cx="458.2" cy="75.8" r="12.1"></circle>
                <circle id="Oval" fill="#DF7977" fill-rule="nonzero" cx="335.6" cy="75.8" r="12.1"></circle>
                <ellipse id="Oval" fill="#F3AF9D" fill-rule="nonzero" cx="397.8" cy="70.4" rx="57" ry="57.6"></ellipse>
                <g id="Group" transform="translate(385.000000, 102.000000)" fill-rule="nonzero">
                    <path d="M0.5,0.6 C0.8,0.6 1,0.9 1,1.1 C1,1.3 0.7,1.6 0.5,1.6 C0.2,1.6 0,1.3 0,1.1 C0,0.9 0.3,0.6 0.5,0.6 Z" id="rightMiddleLip_2_" fill="#000000"></path>
                    <circle id="upperLipBottomMid_1_" fill="#000000" cx="12.3" cy="0.9" r="1"></circle>
                    <circle id="rightUpperLipBottom1_1_" fill="#000000" cx="9.8" cy="0.6" r="1"></circle>
                    <path d="M24.1,0.6 C24.4,0.6 24.6,0.9 24.6,1.1 C24.6,1.3 24.3,1.6 24.1,1.6 C23.9,1.6 23.6,1.3 23.6,1.1 C23.6,0.9 23.8,0.6 24.1,0.6 Z" id="leftMiddleLip_2_" fill="#000000"></path>
                    <circle id="leftUpperLipBottom1_1_" fill="#000000" cx="14.8" cy="0.6" r="1"></circle>
                    <path d="M1,1.1 C1,1.1 8.7,1 12.3,1 C15.9,1 24.2,0.9 24.2,0.9 C24.2,0.9 17.3,3.5 12.3,3.5 C7.2,3.5 1,1.1 1,1.1 Z" id="Path" stroke="#DF7977" stroke-width="2" fill="#DF7977"></path>
                    <circle id="lowerLipTopMid_2_" fill="#000000" cx="12.3" cy="2.9" r="1"></circle>
                    <circle id="rightLowerLipTop0_2_" fill="#000000" cx="9.8" cy="2.4" r="1"></circle>
                    <circle id="leftLowerLipTop0_2_" fill="#000000" cx="14.8" cy="2.4" r="1"></circle>
                </g>
                <g id="Group" transform="translate(340.000000, 48.000000)">
                    <ellipse id="Oval" fill="#DF7977" fill-rule="nonzero" cx="22.1" cy="41.5" rx="7.8" ry="6.2"></ellipse>
                    <ellipse id="Oval" fill="#2C323A" fill-rule="nonzero" cx="22" cy="25.6" rx="3.6" ry="5.8"></ellipse>
                    <path d="M7,28 C7,31.2383969 9.56557489,33.8775718 12.7750617,33.9958615 L13,34 L31,34 C34.2383969,34 36.8775718,31.4344251 36.9958615,28.2249383 L37,28 L37,23 L39,23 L39,28 C39,32.418278 35.418278,36 31,36 L13,36 C8.581722,36 5,32.418278 5,28 L5,23 L7,23 L7,28 Z" id="rightEye-glasses-bottom" fill="#72605A"></path>
                    <path d="M7,20 C7,23.2383969 9.56557489,25.8775718 12.7750617,25.9958615 L13,26 L31,26 C34.2383969,26 36.8775718,23.4344251 36.9958615,20.2249383 L37,20 L37,15 L39,15 L39,20 C39,24.418278 35.418278,28 31,28 L13,28 C8.581722,28 5,24.418278 5,20 L5,15 L7,15 L7,20 Z" id="rightEye-glasses-top" fill="#72605A" transform="translate(22.000000, 21.500000) scale(1, -1) translate(-22.000000, -21.500000) "></path>
                    <polygon id="Path" fill="#72605A" points="38.4063721 20 43.0718994 21.0374756 56.0264893 21.0374756 62 24 43.0718994 24 39 26.0301514"></polygon>
                    <circle id="rightEye0_1_" fill="#000000" fill-rule="nonzero" cx="26.6" cy="5.2" r="1"></circle>
                    <circle id="rightEye1_1_" fill="#000000" fill-rule="nonzero" cx="31.8" cy="1.5" r="1"></circle>
                    <circle id="rightEye5_1_" fill="#000000" fill-rule="nonzero" cx="31.8" cy="7.5" r="1"></circle>
                    <circle id="rightEye2_1_" fill="#000000" fill-rule="nonzero" cx="38.1" cy="1.5" r="1"></circle>
                    <circle id="rightEye3_1_" fill="#000000" fill-rule="nonzero" cx="43.3" cy="5.7" r="1"></circle>
                    <circle id="rightEye4_1_" fill="#000000" fill-rule="nonzero" cx="38.1" cy="6.7" r="1"></circle>
                    <polygon id="Path-3" fill="#72605A" points="0.8 14.5 13 15 8.04838738 19.332661 5 23 5 18 0.8 17.05"></polygon>
                </g>
                <g id="Group" transform="translate(390.000000, 48.000000)">
                    <ellipse id="Oval" fill="#2C323A" fill-rule="nonzero" cx="40.8" cy="24.6" rx="3.6" ry="5.8"></ellipse>
                    <ellipse id="Oval" fill="#DF7977" fill-rule="nonzero" cx="41.2" cy="41.5" rx="7.8" ry="6.2"></ellipse>
                    <circle id="leftEye0_1_" fill="#000000" fill-rule="nonzero" cx="36.2" cy="5.2" r="1"></circle>
                    <polygon id="Path" fill="#72605A" points="25.9993721 20 21.3338447 21.0374756 6.06298828 21.0374756 0.1 24 21.3338447 24 25.4057441 26.0301514"></polygon>
                    <path d="M26,27 C26,30.2383969 28.5655749,32.8775718 31.7750617,32.9958615 L32,33 L50,33 C53.2383969,33 55.8775718,30.4344251 55.9958615,27.2249383 L56,27 L56,22 L58,22 L58,27 C58,31.418278 54.418278,35 50,35 L32,35 C27.581722,35 24,31.418278 24,27 L24,22 L26,22 L26,27 Z" id="leftEye-glasses-bottom" fill="#72605A"></path>
                    <path d="M26,19 C26,22.2383969 28.5655749,24.8775718 31.7750617,24.9958615 L32,25 L50,25 C53.2383969,25 55.8775718,22.4344251 55.9958615,19.2249383 L56,19 L56,14 L58,14 L58,19 C58,23.418278 54.418278,27 50,27 L32,27 C27.581722,27 24,23.418278 24,19 L24,14 L26,14 L26,19 Z" id="leftEye-glasses-top" fill="#72605A" transform="translate(41.000000, 20.500000) scale(1, -1) translate(-41.000000, -20.500000) "></path>
                    <circle id="leftEye1_1_" fill="#000000" fill-rule="nonzero" cx="31" cy="1.5" r="1"></circle>
                    <circle id="leftEye5_1_" fill="#000000" fill-rule="nonzero" cx="31" cy="7.5" r="1"></circle>
                    <circle id="leftEye2_1_" fill="#000000" fill-rule="nonzero" cx="24.7" cy="1.5" r="1"></circle>
                    <circle id="leftEye3_1_" fill="#000000" fill-rule="nonzero" cx="19.5" cy="5.7" r="1"></circle>
                    <circle id="leftEye4_1_" fill="#000000" fill-rule="nonzero" cx="24.7" cy="6.7" r="1"></circle>
                    <polygon id="Path-3" fill="#72605A" transform="translate(57.400000, 18.250000) scale(-1, 1) translate(-57.400000, -18.250000) " points="50.6830566 14 64.8 14.5 59.8483874 18.832661 56.8 22.5 56.8 17.5 50 16.2160645"></polygon>
                </g>
                <g id="Group" transform="translate(403.000000, 39.000000)" fill-rule="nonzero">
                    <path d="M13.8,13.9 C24.5,8.9 28,8.9 33,14.6 C28,13.9 27.3,17.4 13.8,13.9 Z" id="Path" fill="#2C323A"></path>
                    <circle id="leftBrow1_1_" fill="#000000" cx="25.1" cy="2.7" r="1"></circle>
                    <circle id="leftBrow4_1_" fill="#000000" cx="1.5" cy="4.8" r="1"></circle>
                    <circle id="leftBrow3_1_" fill="#000000" cx="11.5" cy="1.6" r="1"></circle>
                    <circle id="leftBrow0_1_" fill="#000000" cx="29.1" cy="5.6" r="1"></circle>
                    <circle id="leftBrow2_1_" fill="#000000" cx="18.8" cy="1.2" r="1"></circle>
                </g>
                <g id="Group" transform="translate(356.000000, 39.000000)" fill-rule="nonzero">
                    <path d="M20,13.9 C9.3,8.9 5.8,8.9 0.8,14.6 C5.8,13.9 6.5,17.4 20,13.9 Z" id="Path" fill="#2C323A"></path>
                    <circle id="rightBrow1_1_" fill="#000000" cx="8.4" cy="2.3" r="1"></circle>
                    <circle id="rightBrow4_1_" fill="#000000" cx="31.7" cy="5.3" r="1"></circle>
                    <circle id="rightBrow3_1_" fill="#000000" cx="21.9" cy="1.3" r="1"></circle>
                    <circle id="rightBrow0_1_" fill="#000000" cx="4.4" cy="6" r="1"></circle>
                    <circle id="rightBrow2_1_" fill="#000000" cx="14.6" cy="1.3" r="1"></circle>
                </g>
                <path d="M354,31 C355.9,38.7 418,39 436,28 C453.257476,17.4537645 445.612305,13.0791016 440.612305,10.0791016 C436.212305,7.47910156 428.9,7.47910156 418,9 C416.8,5.13574219 416.3,2.91357422 399.3,0.913574219 C371.5,-2.38642578 349.6,13 354,31 Z" id="Path" fill="#72605A" fill-rule="nonzero"></path>
                <g id="Group" transform="translate(384.000000, 47.000000)" fill-rule="nonzero">
                    <path d="M10.4,31.8 C9.2,31.8 5.8,33.4 4.6,37 C4.4,38.2 5.2,42.8 10.6,41.1 C10.5,40.1 5.9,40 6.1,37.4 C6.4,35.6 8.1,35.6 10.4,31.8 Z" id="Path" stroke="#2C323A" stroke-width="2" fill="#2C323A"></path>
                    <circle id="nose1_1_" fill="#000000" cx="11.6" cy="7.2" r="1"></circle>
                    <circle id="nose0_1_" fill="#000000" cx="11.6" cy="1.4" r="1"></circle>
                    <circle id="nose3_1_" fill="#000000" cx="11.6" cy="19.8" r="1"></circle>
                    <circle id="rightNose0_1_" fill="#000000" cx="0.9" cy="24.3" r="1"></circle>
                    <circle id="rightNose1_1_" fill="#000000" cx="6.1" cy="24.3" r="1"></circle>
                    <circle id="nose2_1_" fill="#000000" cx="11.6" cy="12.7" r="1"></circle>
                    <circle id="nose4_1_" fill="#000000" cx="11.6" cy="25.1" r="1"></circle>
                    <circle id="leftNose0_1_" fill="#000000" cx="22" cy="24.3" r="1"></circle>
                    <circle id="leftNose1_1_" fill="#000000" cx="17.2" cy="24.3" r="1"></circle>
                </g>
                <path d="M453.466797,83.3 C453.466797,95.9253858 441.309778,115.181017 428.1,125.016602 L426.4,126.606445 C418.852003,132.095731 413.286417,132.174805 396.8,132.174805 C379.588421,132.174805 375.801677,133.151382 367.961304,126.606445 L365.6,125.016602 C353.248194,114.679779 341.385427,93.8240623 342.129883,83.3 C346.198242,92.6679688 354.4,98.0392578 362.1,104.9 C369.272603,111.290828 386.684125,111.728556 396.795038,111.758538 L398.9,111.760742 C405.424782,111.760742 416.19945,109.510569 424.662091,106.028162 C420.229968,102.239431 408.124814,98.5056674 396.3,98.206543 C383.428377,97.8809381 371.119925,103.289734 367.961304,108.128784 C367.887695,108.362183 365.754659,107.347229 363.712158,106.20105 L363.974524,105.259979 C365.423135,101.523667 369.238443,95.709636 382.5,93.5429687 C386.154967,92.9458219 391.105196,94.2448924 396.3,94.2 C402.788824,94.143925 408.472413,92.9311162 412.754883,93.5429687 C424.588801,95.233725 428.625365,99.6362269 430.151965,103.387657 C431.81304,102.438679 433.257894,101.435238 434.4,100.389648 C441.5,93.8896484 447.051562,86.8224609 453.466797,83.3 Z" id="Path" fill="#776758"></path>
            </g>
            <g id="skeleton_1_" transform="translate(14.000000, 7.000000)">
                <circle id="rightShoulder" fill="#000000" fill-rule="nonzero" cx="276.8" cy="180.3" r="8.2"></circle>
                <circle id="rightElbow" fill="#000000" fill-rule="nonzero" cx="173.3" cy="180.4" r="8.2"></circle>
                <circle id="rightWrist" fill="#000000" fill-rule="nonzero" transform="translate(9.895821, 186.789987) rotate(-5.655157) translate(-9.895821, -186.789987) " cx="9.89582114" cy="186.789987" r="8.19972809"></circle>
                <circle id="rightHip" fill="#000000" fill-rule="nonzero" cx="327.1" cy="396.1" r="8.2"></circle>
                <circle id="rightKnee" fill="#000000" fill-rule="nonzero" cx="333.5" cy="556.3" r="8.2"></circle>
                <circle id="rightAnkle" fill="#000000" fill-rule="nonzero" cx="333.5" cy="764.3" r="8.2"></circle>
                <circle id="leftShoulder" fill="#000000" fill-rule="nonzero" cx="489.7" cy="180.3" r="8.2"></circle>
                <circle id="leftElbow" fill="#000000" fill-rule="nonzero" cx="594.1" cy="180" r="8.2"></circle>
                <circle id="leftWrist" fill="#000000" fill-rule="nonzero" cx="757.5" cy="186.3" r="8.2"></circle>
                <circle id="leftHip" fill="#000000" fill-rule="nonzero" cx="443.5" cy="395.3" r="8.2"></circle>
                <circle id="leftKnee" fill="#000000" fill-rule="nonzero" cx="443.5" cy="556.3" r="8.2"></circle>
                <circle id="leftAnkle" fill="#000000" fill-rule="nonzero" cx="443.5" cy="764.3" r="8.2"></circle>
                <polygon id="Path" stroke="#000000" points="276.7 180.6 327 396.4 443.4 395.6 489.6 180.6"></polygon>
                <polyline id="Path" stroke="#000000" points="275.7 180.6 173 180.6 9.7 186.9"></polyline>
                <polyline id="Path" stroke="#000000" points="491.1 180.2 594.3 180.2 757.6 186.6"></polyline>
                <polyline id="Path" stroke="#000000" points="327 396.4 333.4 556.6 333.4 764.6"></polyline>
                <polyline id="Path" stroke="#000000" points="443.4 395.6 443.4 556.6 443.4 764.6"></polyline>
                <circle id="rightEye0" fill="#000000" fill-rule="nonzero" cx="352.6" cy="46.2" r="1"></circle>
                <circle id="rightBrow1" fill="#000000" fill-rule="nonzero" cx="350.4" cy="34.3" r="1"></circle>
                <circle id="rightBrow4" fill="#000000" fill-rule="nonzero" cx="373.7" cy="37.3" r="1"></circle>
                <circle id="nose1" fill="#000000" fill-rule="nonzero" cx="381.6" cy="47.2" r="1"></circle>
                <circle id="rightBrow3" fill="#000000" fill-rule="nonzero" cx="363.9" cy="33.3" r="1"></circle>
                <circle id="rightEye1" fill="#000000" fill-rule="nonzero" cx="357.8" cy="42.5" r="1"></circle>
                <circle id="rightBrow0" fill="#000000" fill-rule="nonzero" cx="346.4" cy="38" r="1"></circle>
                <circle id="rightBrow2" fill="#000000" fill-rule="nonzero" cx="356.6" cy="33.3" r="1"></circle>
                <circle id="rightEye5" fill="#000000" fill-rule="nonzero" cx="357.8" cy="48.5" r="1"></circle>
                <circle id="rightEye2" fill="#000000" fill-rule="nonzero" cx="364.1" cy="42.5" r="1"></circle>
                <circle id="rightEye3" fill="#000000" fill-rule="nonzero" cx="369.3" cy="46.7" r="1"></circle>
                <circle id="nose0" fill="#000000" fill-rule="nonzero" cx="381.6" cy="41.4" r="1"></circle>
                <circle id="nose3" fill="#000000" fill-rule="nonzero" cx="381.6" cy="59.8" r="1"></circle>
                <circle id="rightNose0" fill="#000000" fill-rule="nonzero" cx="370.9" cy="64.3" r="1"></circle>
                <circle id="rightMouthCorner" fill="#000000" fill-rule="nonzero" cx="364.9" cy="86.4" r="1"></circle>
                <circle id="rightNose1" fill="#000000" fill-rule="nonzero" cx="376.1" cy="64.3" r="1"></circle>
                <circle id="rightUpperLipTop0" fill="#000000" fill-rule="nonzero" cx="371.8" cy="83" r="1"></circle>
                <circle id="nose2" fill="#000000" fill-rule="nonzero" cx="381.6" cy="52.7" r="1"></circle>
                <circle id="nose4" fill="#000000" fill-rule="nonzero" cx="381.6" cy="65.1" r="1"></circle>
                <circle id="upperLipTopMid" fill="#000000" fill-rule="nonzero" cx="382.4" cy="82.8" r="1"></circle>
                <circle id="rightUpperLipTop1" fill="#000000" fill-rule="nonzero" cx="378.3" cy="81.9" r="1"></circle>
                <path d="M368.5,85.9 C368.9,85.9 369.3,86.3 369.3,86.7 C369.3,87.1 368.9,87.5 368.5,87.5 C368.1,87.5 367.7,87.1 367.7,86.7 C367.7,86.3 368.1,85.9 368.5,85.9 Z" id="rightMiddleLip" fill="#000000" fill-rule="nonzero"></path>
                <circle id="lowerLipBottomMid" fill="#000000" fill-rule="nonzero" cx="382.4" cy="96" r="1"></circle>
                <circle id="upperLipBottomMid" fill="#000000" fill-rule="nonzero" cx="382.4" cy="86.4" r="1"></circle>
                <circle id="lowerLipTopMid" fill="#000000" fill-rule="nonzero" cx="382.4" cy="89.5" r="1"></circle>
                <circle id="rightUpperLipBottom1" fill="#000000" fill-rule="nonzero" cx="378.5" cy="85.9" r="1"></circle>
                <circle id="rightLowerLipTop0" fill="#000000" fill-rule="nonzero" cx="378.5" cy="88.8" r="1"></circle>
                <circle id="rightLowerLipBottom1" fill="#000000" fill-rule="nonzero" cx="378.3" cy="95.5" r="1"></circle>
                <circle id="rightLowerLipBottom0" fill="#000000" fill-rule="nonzero" cx="371.3" cy="92.7" r="1"></circle>
                <circle id="rightEye4" fill="#000000" fill-rule="nonzero" cx="364.1" cy="47.7" r="1"></circle>
                <circle id="jawMid" fill="#000000" fill-rule="nonzero" cx="382.4" cy="121.8" r="1"></circle>
                <circle id="rightJaw7" fill="#000000" fill-rule="nonzero" cx="367.4" cy="118.6" r="1"></circle>
                <circle id="rightJaw6" fill="#000000" fill-rule="nonzero" cx="357.4" cy="111.9" r="1"></circle>
                <circle id="rightJaw5" fill="#000000" fill-rule="nonzero" cx="345.8" cy="99.4" r="1"></circle>
                <circle id="rightJaw4" fill="#000000" fill-rule="nonzero" cx="339" cy="79.4" r="1"></circle>
                <circle id="rightJaw3" fill="#000000" fill-rule="nonzero" cx="338.2" cy="57.7" r="1"></circle>
                <circle id="rightJaw2" fill="#000000" fill-rule="nonzero" cx="338.2" cy="48.2" r="1"></circle>
                <circle id="rightJaw1" fill="#000000" fill-rule="nonzero" cx="339" cy="36.5" r="1"></circle>
                <circle id="rightJaw0" fill="#000000" fill-rule="nonzero" cx="341.5" cy="27.2" r="1"></circle>
                <circle id="topMid" fill="#000000" fill-rule="nonzero" cx="382.6" cy="1.1" r="1"></circle>
                <circle id="leftTop0" fill="#000000" fill-rule="nonzero" cx="402.3" cy="3.6" r="1"></circle>
                <circle id="leftTop1" fill="#000000" fill-rule="nonzero" cx="414.9" cy="13.1" r="1"></circle>
                <circle id="leftEye0" fill="#000000" fill-rule="nonzero" cx="412.2" cy="46.2" r="1"></circle>
                <circle id="leftBrow1" fill="#000000" fill-rule="nonzero" cx="414.1" cy="34.7" r="1"></circle>
                <circle id="leftBrow4" fill="#000000" fill-rule="nonzero" cx="390.5" cy="36.8" r="1"></circle>
                <circle id="leftBrow3" fill="#000000" fill-rule="nonzero" cx="400.5" cy="33.6" r="1"></circle>
                <circle id="leftEye1" fill="#000000" fill-rule="nonzero" cx="407" cy="42.5" r="1"></circle>
                <circle id="leftBrow0" fill="#000000" fill-rule="nonzero" cx="418.1" cy="37.6" r="1"></circle>
                <circle id="leftBrow2" fill="#000000" fill-rule="nonzero" cx="407.8" cy="33.2" r="1"></circle>
                <circle id="leftEye5" fill="#000000" fill-rule="nonzero" cx="407" cy="48.5" r="1"></circle>
                <circle id="leftEye2" fill="#000000" fill-rule="nonzero" cx="400.7" cy="42.5" r="1"></circle>
                <circle id="leftEye3" fill="#000000" fill-rule="nonzero" cx="395.5" cy="46.7" r="1"></circle>
                <circle id="leftNose0" fill="#000000" fill-rule="nonzero" cx="392" cy="64.3" r="1"></circle>
                <circle id="leftMouthCorner" fill="#000000" fill-rule="nonzero" cx="399.9" cy="86.4" r="1"></circle>
                <circle id="leftNose1" fill="#000000" fill-rule="nonzero" cx="387.2" cy="64.3" r="1"></circle>
                <circle id="leftUpperLipTop0" fill="#000000" fill-rule="nonzero" cx="393" cy="83" r="1"></circle>
                <circle id="leftUpperLipTop1" fill="#000000" fill-rule="nonzero" cx="386.6" cy="81.9" r="1"></circle>
                <path d="M396.3,85.9 C396.7,85.9 397.1,86.3 397.1,86.7 C397.1,87.1 396.7,87.5 396.3,87.5 C395.9,87.5 395.5,87.1 395.5,86.7 C395.5,86.3 395.9,85.9 396.3,85.9 Z" id="leftMiddleLip" fill="#000000" fill-rule="nonzero"></path>
                <circle id="leftUpperLipBottom1" fill="#000000" fill-rule="nonzero" cx="386.4" cy="85.9" r="1"></circle>
                <circle id="leftLowerLipTop0" fill="#000000" fill-rule="nonzero" cx="386.4" cy="88.8" r="1"></circle>
                <circle id="leftLowerLipBottom1" fill="#000000" fill-rule="nonzero" cx="386.6" cy="95.5" r="1"></circle>
                <circle id="leftLowerLipBottom0" fill="#000000" fill-rule="nonzero" cx="393.5" cy="92.7" r="1"></circle>
                <circle id="leftEye4" fill="#000000" fill-rule="nonzero" cx="400.7" cy="47.7" r="1"></circle>
                <circle id="leftJaw7" fill="#000000" fill-rule="nonzero" cx="397.2" cy="119" r="1"></circle>
                <circle id="leftJaw6" fill="#000000" fill-rule="nonzero" cx="407.2" cy="112.3" r="1"></circle>
                <circle id="leftJaw5" fill="#000000" fill-rule="nonzero" cx="418.8" cy="99.7" r="1"></circle>
                <circle id="leftJaw4" fill="#000000" fill-rule="nonzero" cx="425.6" cy="79.7" r="1"></circle>
                <circle id="leftJaw3" fill="#000000" fill-rule="nonzero" cx="426.4" cy="58.1" r="1"></circle>
                <circle id="leftJaw2" fill="#000000" fill-rule="nonzero" cx="426.4" cy="48.5" r="1"></circle>
                <circle id="leftJaw1" fill="#000000" fill-rule="nonzero" cx="425.6" cy="36.8" r="1"></circle>
                <circle id="leftJaw0" fill="#000000" fill-rule="nonzero" cx="423.1" cy="27.6" r="1"></circle>
                <polyline id="Path" stroke="#000000" points="382.4 1.1 362.6 3.6 350.1 13.1 341.5 27.2 339 36.5 338.2 48.2 338.2 57.7 339 79.4 345.8 99.4 357.4 111.9 367.4 118.6 382.4 121.8 397.2 119 407.2 112.3 418.8 99.7 425.6 79.7 426.4 58.1 426.4 48.5 425.6 36.8 423.1 27.6 414.9 13.1 402.3 3.6 382.4 1.1"></polyline>
                <polyline id="Path" stroke="#000000" points="346.4 38 350.4 34.3 356.6 33.3 363.9 33.3 373.7 37.3"></polyline>
                <polygon id="Path" stroke="#000000" points="352.6 46.2 357.8 42.5 364.1 42.5 369.3 46.7 364.1 47.7 357.8 48.5"></polygon>
                <polyline id="Path" stroke="#000000" points="370.9 64.3 376.1 64.3 381.6 65.1 381.6 59.8 381.6 52.7 381.6 47.2 381.6 41.4"></polyline>
                <polyline id="Path" stroke="#000000" points="417.9 37.6 413.9 34.7 407.6 33.2 400.3 33.6 390.3 36.8"></polyline>
                <polygon id="Path" stroke="#000000" points="412 46.2 406.7 42.5 400.4 42.5 395.3 46.7 400.4 47.7 406.7 48.5"></polygon>
                <polyline id="Path" stroke="#000000" points="392 64.3 387 64.3 381.6 65.1"></polyline>
                <polygon id="Path" stroke="#000000" points="364.9 86.4 371.8 83 378.3 81.9 382.4 82.8 386.6 81.9 393 83 399.9 86.4 393.5 92.7 386.4 95.5 382.4 96 378.3 95.5 371.3 92.7"></polygon>
                <polyline id="Path" stroke="#000000" points="364.9 86.4 368.5 86.7 378.5 85.9 382.4 86.4 386.4 85.9 396.3 86.7 399.9 86.4"></polyline>
                <polyline id="Path" stroke="#000000" points="364.9 86.4 368.5 86.7 378.5 88.8 382.4 89.6 386.4 88.8 396.3 86.7 399.9 86.4"></polyline>
                <circle id="rightTop0" fill="#000000" fill-rule="nonzero" cx="362.7" cy="3.6" r="1"></circle>
                <circle id="rightTop1" fill="#000000" fill-rule="nonzero" cx="350.1" cy="13.1" r="1"></circle>
            </g>
        </g>
    </g>
</svg>